<?xml version="1.0" standalone="no"?>
<!DOCTYPE svg PUBLIC "-//W3C//DTD SVG 20010904//EN"
 "http://www.w3.org/TR/2001/REC-SVG-20010904/DTD/svg10.dtd">
<svg version="1.0" xmlns="http://www.w3.org/2000/svg"
 width="1542.000000pt" height="1542.000000pt" viewBox="0 0 1542.000000 1542.000000"
 preserveAspectRatio="xMidYMid meet">
<metadata>
Created by potrace 1.14, written by Peter Selinger 2001-2017
</metadata>
<g transform="translate(0.000000,1542.000000) scale(0.100000,-0.100000)"
fill="#000000" stroke="none">
<path d="M6533 15405 c-42 -18 -64 -63 -68 -139 -3 -56 0 -84 21 -175 l7 -35
-34 21 c-38 24 -120 42 -165 36 -89 -12 -127 -114 -64 -173 28 -26 41 -48 21
-36 -4 3 -25 -3 -46 -14 -21 -11 -40 -19 -41 -17 -1 1 -9 29 -19 62 -41 143
-121 242 -185 230 -33 -6 -51 -25 -76 -80 -13 -27 -24 -43 -24 -35 0 28 -76
99 -131 124 -84 38 -133 38 -179 -1 -28 -23 -32 -31 -27 -63 8 -58 37 -110 97
-172 52 -54 54 -58 30 -58 -65 -1 -153 -56 -166 -104 -6 -24 -71 -62 -94 -54
-7 2 -14 23 -16 47 -8 87 -80 161 -155 161 -45 -1 -109 -77 -109 -129 0 -46
-18 -8 -40 87 -17 71 -28 97 -48 112 -30 24 -89 26 -119 5 -25 -17 -62 -108
-59 -145 3 -40 -1 -40 -46 1 -62 57 -121 89 -176 96 -42 5 -50 2 -76 -23 -26
-27 -28 -33 -23 -87 5 -54 36 -125 71 -160 14 -13 33 -87 24 -87 -3 0 -26 11
-53 25 -126 68 -247 28 -249 -82 l-1 -49 -55 23 c-81 32 -135 42 -223 40 -75
-2 -80 -4 -108 -35 -16 -18 -29 -42 -29 -55 0 -28 32 -97 54 -120 16 -16 15
-17 -31 -18 -100 -2 -158 -26 -229 -97 -40 -40 -54 -69 -54 -113 0 -46 17 -69
66 -91 52 -22 160 -24 234 -2 52 16 58 13 38 -18 -22 -34 -39 -92 -40 -136 l0
-38 -61 12 c-97 20 -154 24 -187 13 -61 -22 -80 -116 -35 -175 31 -41 19 -38
-75 19 -88 54 -151 59 -209 17 -22 -17 -44 -42 -47 -56 -8 -33 11 -99 37 -125
12 -12 18 -23 16 -25 -3 -3 -49 13 -102 36 -86 37 -101 40 -125 30 -16 -7 -36
-20 -45 -30 -43 -48 -10 -151 65 -203 13 -9 20 -17 15 -18 -6 0 -17 -2 -25 -4
-8 -2 -33 -6 -55 -10 -51 -8 -135 -48 -163 -78 -27 -29 -33 -65 -17 -97 20
-38 45 -55 110 -74 33 -10 66 -19 73 -22 6 -2 12 -10 12 -18 0 -8 17 -32 38
-52 20 -21 29 -34 20 -31 -9 3 -52 13 -95 22 -117 24 -172 8 -213 -63 -19 -31
-20 -41 -11 -72 13 -41 45 -80 81 -98 21 -10 14 -11 -56 -7 -44 3 -94 8 -111
11 -64 13 -126 -84 -89 -141 25 -38 58 -66 99 -85 l38 -17 -63 -36 c-112 -63
-167 -138 -145 -200 26 -77 205 -86 300 -15 50 38 52 38 53 10 2 -64 5 -74 29
-98 21 -21 32 -24 62 -19 21 3 48 12 61 21 22 15 23 14 20 -19 -1 -20 6 -46
16 -62 18 -27 86 -64 120 -65 35 0 10 -10 -90 -36 -118 -30 -139 -46 -139
-110 0 -38 5 -50 28 -70 32 -27 117 -55 146 -47 29 7 27 1 -19 -49 -88 -96
-119 -203 -73 -250 18 -17 34 -22 75 -22 87 -1 184 59 225 138 l15 29 25 -45
c43 -78 93 -88 151 -30 37 37 92 151 92 191 0 10 5 32 11 49 l10 30 36 -15
c68 -28 133 14 159 104 17 59 15 175 -5 241 -9 30 -8 33 7 26 9 -4 40 -9 68
-12 44 -3 55 0 73 20 18 19 22 33 20 82 -3 71 -18 119 -65 202 -19 33 -34 65
-34 70 0 5 17 18 37 29 41 22 140 115 167 157 l18 27 30 -35 c26 -29 37 -34
73 -34 65 0 120 46 167 139 20 41 37 77 36 80 -1 3 3 25 7 49 l8 43 32 -31
c57 -56 116 -56 227 0 l58 28 -15 -28 c-26 -51 -19 -89 24 -130 50 -48 125
-90 149 -83 22 5 29 -8 42 -79 8 -38 5 -62 -15 -130 -14 -46 -25 -86 -25 -89
0 -4 25 -33 56 -65 54 -57 75 -91 88 -146 5 -23 2 -27 -25 -33 -34 -8 -90 -84
-116 -160 -13 -40 -13 -47 2 -79 17 -35 73 -77 145 -109 36 -17 70 -23 180
-32 36 -3 81 -8 100 -10 19 -2 76 -6 125 -10 50 -3 108 -8 130 -10 22 -2 85
-7 140 -10 55 -3 124 -8 153 -10 29 -2 124 -7 210 -11 161 -7 247 -11 270 -13
7 -1 1 -14 -15 -33 -202 -234 -408 -413 -583 -507 -78 -41 -81 -44 -67 -64 26
-39 72 -41 274 -8 59 10 133 17 164 16 l55 -2 44 86 c63 124 155 262 246 370
43 52 86 103 95 113 16 21 18 21 187 19 l93 -1 -21 -27 c-40 -52 -155 -165
-198 -195 -80 -55 -96 -113 -107 -381 -3 -102 -2 -119 12 -124 10 -4 23 4 37
22 31 43 55 66 121 115 130 96 223 220 369 492 26 47 52 88 59 90 10 3 778 2
853 -1 14 -1 32 -18 53 -52 17 -28 31 -52 31 -54 0 -6 132 -223 162 -267 100
-146 309 -358 352 -358 12 0 4 379 -8 435 -11 45 -47 94 -86 115 -46 24 -109
79 -159 139 l-41 49 126 1 127 2 34 -38 c124 -137 231 -289 317 -452 l51 -96
48 3 c26 2 96 -4 155 -13 162 -26 240 -30 268 -15 32 17 32 56 1 64 -38 9
-196 113 -293 192 -90 73 -227 210 -312 312 l-44 52 69 1 c37 0 97 2 133 4 36
2 137 6 225 10 88 4 178 8 200 10 22 2 92 6 155 10 63 3 131 8 150 10 19 2 71
6 115 9 99 8 142 12 324 32 70 7 98 22 167 89 56 55 56 56 52 104 -3 32 -17
68 -41 108 -33 54 -41 61 -76 67 l-40 6 14 47 c9 28 31 64 57 92 88 93 83 78
54 179 -27 89 -27 90 -10 157 16 64 18 67 44 62 18 -4 41 3 76 23 114 68 133
106 95 191 -36 79 -65 118 -93 124 -16 4 -28 12 -28 18 -1 7 -16 52 -35 102
-19 49 -33 90 -32 91 1 2 20 -14 43 -34 22 -20 82 -66 134 -102 148 -103 193
-142 226 -198 33 -54 44 -57 44 -12 0 15 3 30 6 33 4 3 61 -67 128 -156 121
-162 280 -333 421 -452 96 -82 124 -112 150 -168 13 -26 27 -48 31 -47 5 0 14
15 20 32 l10 32 18 -55 c30 -94 67 -190 129 -329 58 -132 64 -154 67 -274 0
-14 71 70 96 113 25 43 60 143 75 212 l11 49 66 -54 c104 -82 253 -180 372
-244 101 -55 147 -89 183 -137 36 -50 47 -55 48 -22 1 12 2 44 3 72 3 64 -13
129 -58 244 -48 118 -134 275 -166 301 -19 15 -52 73 -39 68 7 -3 57 -20 109
-38 121 -41 142 -52 197 -103 l46 -42 -6 65 c-11 138 -121 330 -281 494 -84
86 -81 99 8 40 28 -19 51 -32 52 -31 8 8 -37 140 -61 182 -62 106 -231 283
-336 353 -51 33 -59 43 -74 93 -10 31 -15 62 -11 68 4 5 -1 17 -11 26 -10 9
-74 71 -143 138 -69 67 -145 133 -168 147 -29 17 -41 30 -38 42 4 18 -20 33
-29 19 -5 -9 -154 69 -155 81 0 4 6 5 13 3 6 -3 66 -7 132 -9 146 -5 186 -12
247 -42 26 -13 49 -24 52 -24 3 0 -9 32 -27 72 -25 57 -49 89 -117 157 -107
108 -198 171 -372 261 -42 22 -79 43 -82 48 -3 5 23 17 57 26 34 9 114 36 177
58 101 37 125 42 202 43 49 0 88 3 88 6 0 17 -114 111 -166 136 -178 89 -357
126 -599 127 -156 1 -161 2 -207 29 -26 15 -49 27 -52 27 -2 0 -17 5 -31 10
-23 9 -25 13 -14 26 11 14 11 18 -4 28 -14 11 -6 19 66 59 80 45 196 83 221
74 7 -3 18 -2 25 3 18 11 -112 93 -179 112 -53 16 -109 29 -140 34 -73 10
-159 16 -227 16 -46 0 -83 1 -83 3 0 2 21 16 46 31 54 31 48 39 -40 50 -71 9
-83 9 -156 0 -169 -23 -286 -57 -435 -125 l-82 -38 12 51 c7 29 11 74 10 101
-1 28 -3 65 -3 83 -2 42 -14 41 -45 -7 -36 -54 -64 -80 -131 -121 -202 -123
-361 -240 -474 -350 -31 -30 -135 -110 -139 -107 -2 2 1 31 5 64 14 102 7 201
-20 272 l-24 64 -24 -63 c-21 -56 -39 -79 -167 -207 -78 -80 -187 -199 -240
-266 -121 -151 -154 -188 -163 -182 -4 2 -10 28 -13 57 -16 137 -49 235 -106
314 -23 32 -41 53 -42 48 -5 -95 -20 -146 -71 -237 -52 -96 -160 -319 -186
-387 -35 -89 -90 -284 -106 -375 -3 -16 -8 -41 -11 -55 -3 -14 -8 -47 -11 -75
-4 -27 -8 -57 -10 -65 -1 -8 -3 -31 -3 -52 l-1 -36 -252 1 -253 2 3 75 c4 74
4 75 51 125 74 77 136 175 147 233 13 70 -95 125 -181 92 -40 -15 -23 3 58 63
84 63 95 75 112 123 17 50 2 108 -36 135 -23 16 -42 20 -87 18 -31 -1 -63 -7
-70 -12 -7 -5 -15 -7 -19 -3 -6 6 27 40 109 112 20 18 41 41 47 51 15 29 4 74
-25 103 -21 21 -33 25 -82 24 -35 -1 -76 -9 -105 -22 -26 -11 -47 -20 -47 -19
0 1 5 18 10 37 29 100 19 220 -22 257 -31 27 -97 24 -139 -8 l-34 -25 -33 22
c-24 16 -43 22 -72 19 l-38 -4 22 58 c46 115 55 237 24 299 -34 71 -90 76
-178 18 l-35 -23 -2 47 c-2 71 -20 124 -56 171 -67 88 -133 120 -194 94z
m-149 -611 c3 -8 2 -12 -4 -9 -6 3 -10 10 -10 16 0 14 7 11 14 -7z m-2126
-898 c-8 -16 -18 -22 -26 -17 -9 5 -7 13 9 30 26 28 35 21 17 -13z m5486 -463
c138 -130 174 -162 241 -213 39 -29 73 -56 78 -60 4 -3 -61 6 -145 21 -84 15
-175 31 -203 34 -27 4 -52 8 -55 10 -3 2 -37 6 -75 10 -39 4 -73 9 -76 11 -3
1 -37 6 -75 9 -111 10 -114 13 -43 47 66 31 201 118 254 162 17 14 32 25 34
26 2 0 32 -26 65 -57z m-3579 21 c26 -17 66 -15 150 6 22 5 46 10 53 10 16 0
7 -40 -24 -104 -13 -27 -21 -52 -18 -57 9 -15 -30 -26 -111 -33 -44 -3 -91 -8
-105 -10 -14 -3 -49 -7 -78 -10 -28 -3 -67 -8 -85 -11 -43 -6 -343 -53 -389
-61 -41 -7 -42 -4 -15 60 9 21 17 44 17 51 0 11 6 10 30 -2 23 -11 49 -13 103
-9 102 8 156 27 231 79 16 12 37 22 45 23 67 10 161 55 161 77 0 11 8 9 35 -9z
m-815 -303 c0 -7 -71 -24 -76 -18 0 1 8 22 18 46 l20 43 19 -31 c10 -17 19
-35 19 -40z m-2083 -865 c0 -8 -8 -17 -18 -19 -15 -4 -16 -2 -6 14 14 23 24
24 24 5z"/>
<path d="M3949 11246 c-115 -33 -242 -133 -318 -250 l-42 -64 -504 1 c-456 0
-505 2 -505 16 0 24 -48 123 -73 150 -62 66 -161 103 -282 104 -271 2 -488
-142 -511 -339 -17 -143 94 -287 274 -354 132 -50 320 -50 424 0 59 27 123 90
140 136 6 19 19 34 28 35 20 1 901 1 918 0 11 -1 12 -18 8 -78 -26 -332 15
-661 101 -809 l24 -42 -28 -7 c-51 -12 -105 -59 -148 -126 -15 -23 -54 -54
-112 -89 -119 -71 -212 -141 -264 -198 -24 -26 -51 -51 -59 -55 -8 -4 -27 -15
-42 -25 -123 -78 -422 -243 -480 -265 -10 -3 -10 -7 -1 -17 13 -14 130 -18
186 -7 25 5 20 -2 -43 -71 -101 -111 -94 -122 35 -63 67 31 134 82 280 216 55
50 151 135 213 189 61 54 112 101 112 104 0 4 12 15 26 26 26 18 26 18 15 -3
-9 -16 -8 -27 3 -49 13 -26 12 -30 -31 -87 -72 -96 -102 -124 -172 -160 -95
-47 -174 -129 -185 -189 -4 -23 1 -35 27 -61 l33 -33 -64 -84 c-90 -118 -99
-126 -175 -165 -100 -50 -183 -133 -193 -192 -7 -42 53 -101 104 -101 31 0 28
-11 -14 -51 -33 -31 -67 -77 -103 -139 -8 -14 -15 -53 -15 -92 -1 -56 3 -70
21 -90 l23 -24 -36 -35 c-82 -79 -80 -146 8 -184 24 -10 45 -20 47 -22 2 -1
-22 -31 -54 -65 -100 -108 -134 -224 -85 -290 21 -28 21 -35 16 -269 l-5 -240
-27 -21 c-47 -37 -69 -122 -43 -170 14 -25 84 -57 129 -58 32 -1 25 -6 -65
-49 -109 -52 -127 -72 -120 -133 3 -20 15 -43 33 -59 l28 -25 -91 -54 c-77
-45 -91 -57 -92 -79 -1 -14 -2 -93 -3 -174 l-2 -148 -29 -28 c-27 -27 -59 -95
-53 -116 1 -5 5 -22 8 -37 4 -17 18 -34 36 -43 24 -12 30 -22 30 -49 0 -29 -5
-35 -50 -56 -42 -19 -52 -30 -61 -61 -16 -50 -5 -83 34 -111 26 -19 45 -23
104 -23 44 0 69 -4 65 -10 -3 -5 -15 -26 -27 -45 -47 -76 -71 -173 -54 -218 6
-15 5 -30 -5 -45 -19 -31 -13 -70 15 -105 29 -36 57 -51 115 -59 24 -3 41 -9
39 -13 -4 -7 -73 -27 -125 -36 -14 -3 -50 -17 -80 -32 -43 -21 -60 -36 -77
-71 -24 -47 -24 -111 0 -139 21 -26 110 -62 152 -62 51 0 39 -9 -85 -56 -52
-21 -105 -48 -117 -61 -32 -34 -31 -92 2 -131 34 -41 133 -67 199 -52 20 4 36
6 36 4 0 -2 -20 -34 -44 -72 -79 -122 -91 -237 -30 -277 40 -26 113 -23 167 7
l44 25 -43 -64 c-48 -72 -62 -123 -46 -165 10 -26 9 -28 -9 -23 -10 4 -19 5
-19 3 0 -3 13 -44 30 -92 28 -85 29 -89 13 -120 -22 -41 -21 -117 1 -152 10
-14 35 -33 56 -42 28 -10 42 -23 49 -45 16 -45 14 -52 -24 -90 -28 -28 -35
-43 -35 -73 0 -50 34 -93 80 -103 45 -9 126 5 168 30 18 10 35 19 38 19 5 0 2
-19 -15 -89 -14 -62 -7 -170 13 -208 30 -58 97 -72 162 -34 19 11 34 17 34 12
0 -5 -12 -35 -26 -67 -38 -84 -44 -109 -51 -206 -6 -86 -6 -87 24 -116 26 -26
35 -30 73 -26 24 2 59 13 78 24 41 25 45 25 37 1 -3 -10 -7 -57 -9 -105 -3
-48 -9 -92 -14 -99 -8 -9 19 -72 89 -217 55 -113 117 -240 137 -282 20 -43 39
-78 42 -78 3 0 28 43 55 95 28 52 53 95 57 95 4 0 11 -6 15 -13 4 -7 24 -24
43 -38 35 -25 67 -30 107 -16 23 8 73 97 73 131 1 54 55 -86 65 -169 4 -27 8
-64 11 -82 11 -84 77 -216 119 -235 46 -21 110 15 144 80 l19 37 10 -25 c46
-118 113 -218 174 -256 48 -31 110 -39 148 -19 34 17 60 53 63 84 1 22 0 23
66 -38 48 -44 145 -102 198 -117 36 -10 59 -24 73 -44 21 -29 62 -49 92 -44
28 4 87 44 100 67 6 12 17 40 24 62 l12 40 5 -55 c4 -30 8 -87 11 -126 6 -105
37 -153 112 -179 40 -14 85 -6 107 17 40 43 51 63 67 110 l17 52 11 -60 c6
-32 14 -84 18 -114 8 -75 23 -102 64 -122 42 -20 80 -14 115 18 14 13 28 24
30 24 3 0 13 -37 20 -70 6 -29 34 -95 61 -141 39 -65 86 -109 117 -109 40 0
84 36 108 89 l23 51 35 -63 c41 -73 130 -165 185 -191 28 -13 53 -17 90 -13
42 4 55 10 78 38 15 18 28 44 28 56 0 29 15 29 54 0 78 -58 195 -107 256 -107
17 0 48 9 69 20 21 10 40 18 42 16 4 -4 88 -14 184 -21 33 -3 76 -7 95 -10 55
-7 182 -18 211 -18 17 0 39 15 66 44 l40 43 17 -35 c32 -68 127 -104 192 -73
41 20 67 72 74 149 l5 60 26 -55 c15 -30 41 -85 59 -122 31 -67 39 -74 96 -82
20 -3 62 12 79 29 34 34 55 158 36 208 -6 16 -8 27 -4 25 5 -1 47 -22 94 -46
134 -68 223 -67 259 3 8 17 16 32 18 35 2 3 41 -35 86 -83 l83 -89 69 7 c38 3
83 8 99 10 17 2 62 7 100 10 39 3 88 7 110 10 22 2 72 7 110 10 101 9 148 15
154 20 2 3 -5 15 -17 28 l-21 22 62 2 c104 4 175 13 311 39 358 69 646 195
961 421 61 43 122 86 136 95 30 19 139 49 151 42 4 -3 8 0 8 5 0 6 -6 11 -12
11 -7 0 50 31 127 69 204 101 360 207 542 368 50 43 72 57 92 55 43 -5 310
156 435 263 37 31 69 55 70 53 4 -4 63 -113 116 -213 89 -168 123 -230 130
-238 4 -5 21 20 38 55 175 362 212 440 212 449 0 10 -43 93 -120 229 -55 99
-56 89 14 195 61 91 147 256 196 378 14 33 27 52 31 46 14 -23 2 -164 -19
-228 -25 -73 -20 -92 15 -60 35 34 160 285 204 412 20 60 39 111 42 113 2 3
24 8 47 12 24 4 47 14 51 22 5 8 40 101 78 205 38 105 81 221 95 258 l25 68
-32 -5 c-100 -17 -98 -17 -83 13 13 24 27 89 40 181 2 19 8 58 12 85 10 68 12
96 13 200 1 73 4 86 13 70 71 -125 157 -229 175 -212 3 4 -5 33 -19 64 -47
107 -51 129 -44 254 3 65 8 124 11 131 4 13 10 52 23 143 16 122 6 614 -15
700 -3 11 -6 43 -8 70 -2 28 -15 75 -29 105 -29 64 -43 120 -40 170 5 124 9
152 18 156 12 5 18 125 19 409 2 294 -14 446 -64 604 -18 59 -21 100 -25 401
-3 184 -7 337 -10 339 -2 2 -9 -1 -16 -7 -10 -8 -13 18 -13 131 -1 180 -9 268
-35 398 -49 239 -192 588 -320 783 -49 74 -166 233 -193 261 -57 59 -150 172
-165 201 -10 19 -6 24 38 52 42 26 50 36 50 61 0 16 -7 37 -16 45 -18 19 -59
31 -73 22 -9 -6 -31 22 -31 38 0 11 115 -6 160 -23 25 -10 79 -41 120 -71 198
-139 546 -361 597 -380 64 -24 139 -40 148 -32 12 12 2 23 -71 82 -41 34 -74
63 -72 65 2 1 38 5 81 8 122 10 157 42 70 65 -105 28 -504 203 -579 254 -54
37 -197 109 -299 151 -97 41 -169 58 -231 56 -38 -1 -71 4 -91 14 l-31 17 28
58 c68 140 149 502 144 642 -6 148 -49 371 -97 495 -39 101 -81 90 355 88 211
0 389 -2 395 -2 7 -1 22 -21 34 -46 28 -60 93 -118 165 -145 75 -30 235 -33
332 -7 152 40 283 143 317 248 10 30 22 59 26 65 5 6 6 13 3 16 -2 3 -7 18
-10 34 -16 100 -43 152 -111 214 -187 171 -537 189 -676 36 -34 -37 -62 -90
-71 -132 l-7 -32 -470 1 -469 0 -41 45 c-149 167 -352 255 -501 216 -96 -25
-142 -68 -203 -192 l-34 -70 -3352 1 -3351 2 -17 55 c-38 121 -97 197 -186
240 -59 29 -176 36 -246 16z m828 -3731 c2 -3849 0 -3524 28 -3651 79 -348
298 -589 631 -691 l89 -27 640 -3 c352 -1 688 -7 747 -13 99 -10 275 -47 323
-69 111 -50 169 -81 221 -117 161 -114 267 -297 278 -481 2 -35 16 -58 16 -27
3 154 73 309 193 428 96 95 194 154 335 202 204 70 139 66 1327 77 321 3 357
6 428 25 155 43 286 115 391 218 132 130 205 262 263 474 17 62 18 244 20
3443 l3 3377 23 1 c24 1 272 1 298 0 13 -1 18 -17 23 -73 14 -154 82 -342 230
-637 89 -178 118 -234 275 -526 64 -119 69 -132 55 -150 -60 -85 -68 -107 -69
-194 -1 -63 -6 -95 -19 -120 -23 -44 -24 -122 -2 -156 10 -14 42 -45 73 -68
31 -23 69 -53 85 -67 l29 -25 -30 -40 c-133 -175 -189 -267 -241 -400 -45
-112 -57 -154 -75 -260 -14 -83 -28 -146 -45 -210 -11 -38 -22 -88 -26 -110
-3 -22 -9 -60 -14 -84 -8 -45 -5 -314 4 -384 l5 -37 -46 27 c-26 15 -44 23
-41 18 3 -6 9 -48 12 -95 4 -47 9 -103 11 -125 3 -22 7 -80 10 -130 3 -49 7
-99 9 -110 3 -11 5 -45 5 -76 l1 -56 110 -71 c61 -40 110 -75 110 -79 0 -5 6
-39 14 -76 14 -66 14 -71 -11 -145 -13 -43 -27 -88 -29 -102 -9 -51 -16 -75
-27 -89 -7 -7 -12 -46 -13 -85 -1 -39 -5 -138 -9 -221 -10 -191 -10 -246 -1
-375 21 -261 14 -337 -42 -443 -36 -69 -36 -91 -1 -69 19 12 19 10 13 -69 -3
-45 -8 -92 -10 -103 -2 -12 -4 -115 -5 -230 l0 -208 -39 -50 c-83 -104 -185
-288 -285 -513 -40 -89 -78 -162 -102 -194 -23 -30 -25 -37 -14 -66 10 -29 8
-43 -19 -116 -29 -78 -39 -92 -134 -192 l-103 -109 -129 -19 c-153 -23 -173
-26 -240 -35 l-51 -6 -69 -132 c-38 -72 -83 -158 -101 -191 -18 -33 -37 -70
-42 -81 -5 -12 -16 -24 -24 -27 -21 -8 -179 -130 -277 -213 l-85 -72 -123 -3
c-123 -2 -195 -12 -347 -48 -44 -11 -102 -22 -130 -25 -27 -3 -88 -10 -135
-16 -47 -5 -108 -12 -136 -15 -28 -3 -60 -7 -73 -10 -12 -2 -53 -7 -91 -10
-38 -3 -77 -8 -87 -9 -10 -2 -49 -7 -87 -11 -61 -7 -73 -12 -100 -41 -25 -26
-40 -33 -76 -36 l-45 -3 -7 44 c-11 64 -57 97 -124 89 -22 -2 -44 -22 -96 -87
-36 -46 -76 -93 -87 -104 l-20 -21 13 45 c23 75 2 165 -44 189 -29 16 -98 20
-128 9 -35 -13 -78 -55 -104 -100 -20 -36 -20 -36 -52 -21 -18 8 -41 29 -50
47 -38 70 -102 75 -188 16 -32 -22 -60 -36 -63 -31 -3 5 -20 12 -38 15 -17 4
-42 16 -54 27 -17 16 -39 21 -100 24 -43 2 -123 6 -178 9 -55 3 -152 8 -215
11 -97 5 -131 7 -202 13 -5 1 -8 9 -8 20 0 27 -47 70 -86 77 -30 5 -44 0 -102
-38 -97 -64 -142 -91 -147 -86 -3 2 7 20 21 40 34 47 44 136 20 174 -37 55
-127 73 -198 40 -30 -14 -38 -14 -87 3 -41 14 -57 26 -66 47 -26 63 -82 74
-190 40 l-70 -23 -41 28 c-43 29 -125 62 -181 74 -41 8 -41 15 -1 40 18 11 48
42 67 69 49 68 50 126 3 167 -40 36 -70 37 -150 4 -34 -14 -64 -25 -67 -25
-17 0 -23 51 -10 77 33 62 9 135 -53 167 -33 17 -89 25 -121 16 -14 -3 -50 -1
-80 5 -52 11 -56 13 -57 41 -1 75 -33 111 -103 116 -26 2 -35 10 -52 45 -22
46 -100 122 -161 156 -45 26 -48 37 -10 37 49 0 170 88 173 127 5 53 1 69 -27
102 -14 17 -33 31 -43 31 -20 0 -55 91 -46 120 4 13 -24 64 -92 170 -164 253
-200 305 -211 305 -16 0 -27 15 -11 16 70 4 94 10 143 32 66 31 93 72 82 130
-10 52 -42 72 -144 91 -49 9 -104 22 -122 29 l-32 14 46 6 c86 12 158 77 151
137 -11 92 -75 145 -185 153 -43 3 -45 5 -48 36 -2 23 3 40 17 55 64 68 40
141 -64 194 -35 18 -37 21 -20 27 58 19 119 52 136 74 37 46 18 124 -36 151
-25 13 -30 21 -31 55 -3 88 -15 414 -18 467 l-4 58 40 12 c48 14 78 50 78 92
0 56 -20 76 -118 121 -51 23 -94 44 -96 46 -3 2 12 5 33 6 42 3 103 26 118 45
31 39 19 124 -24 169 -21 23 -61 42 -133 65 -11 4 -9 9 10 21 43 26 58 86 49
206 -2 17 1 68 5 112 4 44 9 103 11 130 2 28 7 83 10 124 5 55 4 71 -5 66 -9
-6 -9 -2 -1 13 33 63 -1 168 -84 256 -25 26 -45 49 -43 50 2 1 16 8 31 16 37
19 50 44 49 98 -1 50 -19 82 -70 129 l-35 32 28 11 c23 9 34 7 64 -12 58 -38
80 -48 100 -48 10 0 21 -7 25 -15 7 -19 42 -20 49 -2 3 8 2 20 -3 27 -4 7 -1
29 7 49 11 25 14 56 10 106 -5 68 -9 82 -48 171 -10 23 -16 55 -14 72 2 16 5
94 7 173 3 141 2 145 -25 199 -15 30 -57 88 -93 128 l-66 72 31 0 c50 0 110
29 127 62 21 41 10 82 -38 134 l-39 42 60 62 c117 119 104 211 -50 374 -44 46
-79 91 -79 101 0 9 39 117 86 239 153 394 273 741 287 833 3 17 7 35 10 40 3
4 85 7 184 7 l178 -2 2 -3167z m6968 3045 c38 -70 83 -206 106 -323 33 -166
33 -327 0 -482 -6 -27 -13 -63 -16 -80 -3 -16 -7 -34 -9 -40 -1 -5 -6 -31 -10
-57 -5 -26 -12 -46 -16 -43 -11 7 -138 266 -212 434 -126 285 -204 502 -191
537 3 8 30 10 86 7 98 -6 150 6 197 46 40 35 47 35 65 1z m-7716 -142 c-49
-172 -157 -555 -167 -592 -7 -27 -10 -22 -35 55 -31 97 -63 221 -72 276 -3 21
-8 50 -11 63 -8 35 -13 228 -7 268 5 29 8 33 27 27 11 -4 57 -9 101 -11 66 -2
89 1 135 20 30 13 58 24 61 25 3 0 -11 -59 -32 -131z m8001 -1543 c0 -8 -2
-15 -4 -15 -2 0 -6 7 -10 15 -3 8 -1 15 4 15 6 0 10 -7 10 -15z m-7980 -1661
c0 -2 -7 -4 -15 -4 -8 0 -15 4 -15 10 0 5 7 7 15 4 8 -4 15 -8 15 -10z m-16
-1689 c26 -19 2 -19 -39 0 -29 13 -29 13 -5 14 14 0 34 -6 44 -14z m-1729 -15
c-3 -5 -12 -10 -18 -10 -7 0 -6 4 3 10 19 12 23 12 15 0z m-35 -20 c0 -5 -5
-10 -11 -10 -5 0 -7 5 -4 10 3 6 8 10 11 10 2 0 4 -4 4 -10z m275 -1560 c-4
-12 -9 -19 -12 -17 -3 3 -2 15 2 27 4 12 9 19 12 17 3 -3 2 -15 -2 -27z
m10313 -516 l4 -102 -32 -7 c-17 -4 -33 -5 -34 -3 -2 1 -6 81 -8 177 l-5 175
35 -70 c32 -62 36 -79 40 -170z m-8493 -224 c17 -19 17 -19 -16 -10 -19 6 -35
10 -37 10 -2 0 0 5 3 10 10 16 30 12 50 -10z m7785 -510 c0 -5 -5 -10 -11 -10
-5 0 -7 5 -4 10 3 6 8 10 11 10 2 0 4 -4 4 -10z m-7719 -203 c7 -26 7 -26 -17
-10 -25 16 -29 25 -17 37 12 12 27 0 34 -27z m6420 -269 c-10 -18 -26 -35 -37
-36 -15 -3 -11 4 15 32 19 20 36 36 38 36 1 0 -6 -15 -16 -32z m-4231 -282
c-5 -5 -20 -4 -37 2 -36 15 -125 28 -180 27 -24 0 -43 1 -43 3 0 2 11 13 24
23 13 10 36 44 51 76 l27 57 83 -89 c49 -53 80 -94 75 -99z m4862 -453 c-11
-15 -37 -44 -58 -63 -29 -27 -25 -20 17 31 54 65 79 85 41 32z m-897 -322 c-3
-6 -14 -11 -23 -11 -13 0 -13 2 4 14 21 15 30 14 19 -3z m-3930 -861 c3 -4 -2
-10 -10 -14 -8 -3 -19 3 -25 13 -8 16 -7 18 10 14 11 -3 22 -9 25 -13z"/>
</g>
</svg>
